<svg xmlns="http://www.w3.org/2000/svg" viewBox="0 0 240 240" width="240" height="240"><g fill="#FFFFFF"><circle cx="6" cy="12" r="2.1" fill-opacity="0.09"/><circle cx="6" cy="19" r="2.1" fill-opacity="0.09"/><circle cx="30" cy="12" r="2.1" fill-opacity="0.09"/><circle cx="30" cy="19" r="2.1" fill-opacity="0.09"/><circle cx="30" cy="26" r="2.1" fill-opacity="0.09"/><circle cx="30" cy="33" r="2.1" fill-opacity="0.09"/><circle cx="54" cy="12" r="2.1" fill-opacity="0.09"/><circle cx="54" cy="19" r="2.1" fill-opacity="0.09"/><circle cx="78" cy="12" r="2.1" fill-opacity="0.15"/><circle cx="78" cy="19" r="2.1" fill-opacity="0.15"/><circle cx="78" cy="26" r="2.1" fill-opacity="0.15"/><circle cx="102" cy="12" r="2.1" fill-opacity="0.15"/><circle cx="102" cy="19" r="2.1" fill-opacity="0.15"/><circle cx="102" cy="26" r="2.1" fill-opacity="0.15"/><circle cx="126" cy="12" r="2.1" fill-opacity="0.09"/><circle cx="126" cy="19" r="2.1" fill-opacity="0.09"/><circle cx="126" cy="26" r="2.1" fill-opacity="0.09"/><circle cx="150" cy="12" r="2.1" fill-opacity="0.15"/><circle cx="150" cy="19" r="2.1" fill-opacity="0.15"/><circle cx="150" cy="26" r="2.1" fill-opacity="0.15"/><circle cx="174" cy="12" r="2.1" fill-opacity="0.15"/><circle cx="174" cy="19" r="2.1" fill-opacity="0.15"/><circle cx="198" cy="12" r="2.1" fill-opacity="0.09"/><circle cx="198" cy="19" r="2.1" fill-opacity="0.09"/><circle cx="222" cy="12" r="2.1" fill-opacity="0.15"/><circle cx="222" cy="19" r="2.1" fill-opacity="0.15"/><circle cx="222" cy="26" r="2.1" fill-opacity="0.15"/><circle cx="18" cy="60" r="2.1" fill-opacity="0.09"/><circle cx="18" cy="67" r="2.1" fill-opacity="0.09"/><circle cx="42" cy="60" r="2.1" fill-opacity="0.09"/><circle cx="42" cy="67" r="2.1" fill-opacity="0.09"/><circle cx="42" cy="74" r="2.1" fill-opacity="0.09"/><circle cx="42" cy="81" r="2.1" fill-opacity="0.09"/><circle cx="66" cy="60" r="2.1" fill-opacity="0.09"/><circle cx="66" cy="67" r="2.1" fill-opacity="0.09"/><circle cx="66" cy="74" r="2.1" fill-opacity="0.09"/><circle cx="90" cy="60" r="2.1" fill-opacity="0.09"/><circle cx="90" cy="67" r="2.1" fill-opacity="0.09"/><circle cx="90" cy="74" r="2.1" fill-opacity="0.09"/><circle cx="114" cy="60" r="2.1" fill-opacity="0.09"/><circle cx="114" cy="67" r="2.1" fill-opacity="0.09"/><circle cx="138" cy="60" r="2.1" fill-opacity="0.09"/><circle cx="138" cy="67" r="2.1" fill-opacity="0.09"/><circle cx="138" cy="74" r="2.1" fill-opacity="0.09"/><circle cx="138" cy="81" r="2.1" fill-opacity="0.09"/><circle cx="162" cy="60" r="2.1" fill-opacity="0.09"/><circle cx="162" cy="67" r="2.1" fill-opacity="0.09"/><circle cx="162" cy="74" r="2.1" fill-opacity="0.09"/><circle cx="162" cy="81" r="2.1" fill-opacity="0.09"/><circle cx="186" cy="60" r="2.1" fill-opacity="0.15"/><circle cx="186" cy="67" r="2.1" fill-opacity="0.15"/><circle cx="186" cy="74" r="2.1" fill-opacity="0.15"/><circle cx="210" cy="60" r="2.1" fill-opacity="0.09"/><circle cx="210" cy="67" r="2.1" fill-opacity="0.09"/><circle cx="210" cy="74" r="2.1" fill-opacity="0.09"/><circle cx="234" cy="60" r="2.1" fill-opacity="0.09"/><circle cx="234" cy="67" r="2.1" fill-opacity="0.09"/><circle cx="234" cy="74" r="2.1" fill-opacity="0.09"/><circle cx="6" cy="108" r="2.1" fill-opacity="0.09"/><circle cx="6" cy="115" r="2.1" fill-opacity="0.09"/><circle cx="30" cy="108" r="2.1" fill-opacity="0.09"/><circle cx="30" cy="115" r="2.1" fill-opacity="0.09"/><circle cx="54" cy="108" r="2.1" fill-opacity="0.09"/><circle cx="54" cy="115" r="2.1" fill-opacity="0.09"/><circle cx="54" cy="122" r="2.1" fill-opacity="0.09"/><circle cx="78" cy="108" r="2.1" fill-opacity="0.09"/><circle cx="78" cy="115" r="2.1" fill-opacity="0.09"/><circle cx="78" cy="122" r="2.1" fill-opacity="0.09"/><circle cx="102" cy="108" r="2.1" fill-opacity="0.15"/><circle cx="102" cy="115" r="2.1" fill-opacity="0.15"/><circle cx="102" cy="122" r="2.1" fill-opacity="0.15"/><circle cx="102" cy="129" r="2.1" fill-opacity="0.15"/><circle cx="126" cy="108" r="2.1" fill-opacity="0.15"/><circle cx="126" cy="115" r="2.1" fill-opacity="0.15"/><circle cx="126" cy="122" r="2.1" fill-opacity="0.15"/><circle cx="150" cy="108" r="2.1" fill-opacity="0.09"/><circle cx="150" cy="115" r="2.1" fill-opacity="0.09"/><circle cx="150" cy="122" r="2.1" fill-opacity="0.09"/><circle cx="174" cy="108" r="2.1" fill-opacity="0.09"/><circle cx="174" cy="115" r="2.1" fill-opacity="0.09"/><circle cx="174" cy="122" r="2.1" fill-opacity="0.09"/><circle cx="198" cy="108" r="2.1" fill-opacity="0.09"/><circle cx="198" cy="115" r="2.1" fill-opacity="0.09"/><circle cx="198" cy="122" r="2.1" fill-opacity="0.09"/><circle cx="222" cy="108" r="2.1" fill-opacity="0.15"/><circle cx="222" cy="115" r="2.1" fill-opacity="0.15"/><circle cx="222" cy="122" r="2.1" fill-opacity="0.15"/><circle cx="18" cy="156" r="2.1" fill-opacity="0.09"/><circle cx="18" cy="163" r="2.1" fill-opacity="0.09"/><circle cx="42" cy="156" r="2.1" fill-opacity="0.15"/><circle cx="42" cy="163" r="2.1" fill-opacity="0.15"/><circle cx="42" cy="170" r="2.1" fill-opacity="0.15"/><circle cx="66" cy="156" r="2.1" fill-opacity="0.09"/><circle cx="66" cy="163" r="2.1" fill-opacity="0.09"/><circle cx="90" cy="156" r="2.1" fill-opacity="0.09"/><circle cx="90" cy="163" r="2.1" fill-opacity="0.09"/><circle cx="90" cy="170" r="2.1" fill-opacity="0.09"/><circle cx="90" cy="177" r="2.1" fill-opacity="0.09"/><circle cx="114" cy="156" r="2.1" fill-opacity="0.09"/><circle cx="114" cy="163" r="2.1" fill-opacity="0.09"/><circle cx="114" cy="170" r="2.1" fill-opacity="0.09"/><circle cx="138" cy="156" r="2.1" fill-opacity="0.09"/><circle cx="138" cy="163" r="2.1" fill-opacity="0.09"/><circle cx="138" cy="170" r="2.1" fill-opacity="0.09"/><circle cx="138" cy="177" r="2.1" fill-opacity="0.09"/><circle cx="162" cy="156" r="2.1" fill-opacity="0.09"/><circle cx="162" cy="163" r="2.1" fill-opacity="0.09"/><circle cx="162" cy="170" r="2.1" fill-opacity="0.09"/><circle cx="162" cy="177" r="2.1" fill-opacity="0.09"/><circle cx="186" cy="156" r="2.1" fill-opacity="0.09"/><circle cx="186" cy="163" r="2.1" fill-opacity="0.09"/><circle cx="210" cy="156" r="2.1" fill-opacity="0.09"/><circle cx="210" cy="163" r="2.1" fill-opacity="0.09"/><circle cx="210" cy="170" r="2.1" fill-opacity="0.09"/><circle cx="210" cy="177" r="2.1" fill-opacity="0.09"/><circle cx="234" cy="156" r="2.1" fill-opacity="0.09"/><circle cx="234" cy="163" r="2.1" fill-opacity="0.09"/><circle cx="6" cy="204" r="2.1" fill-opacity="0.09"/><circle cx="6" cy="211" r="2.1" fill-opacity="0.09"/><circle cx="30" cy="204" r="2.1" fill-opacity="0.09"/><circle cx="30" cy="211" r="2.1" fill-opacity="0.09"/><circle cx="30" cy="218" r="2.1" fill-opacity="0.09"/><circle cx="30" cy="225" r="2.1" fill-opacity="0.09"/><circle cx="54" cy="204" r="2.1" fill-opacity="0.09"/><circle cx="54" cy="211" r="2.1" fill-opacity="0.09"/><circle cx="54" cy="218" r="2.1" fill-opacity="0.09"/><circle cx="78" cy="204" r="2.1" fill-opacity="0.09"/><circle cx="78" cy="211" r="2.1" fill-opacity="0.09"/><circle cx="102" cy="204" r="2.1" fill-opacity="0.09"/><circle cx="102" cy="211" r="2.1" fill-opacity="0.09"/><circle cx="126" cy="204" r="2.1" fill-opacity="0.09"/><circle cx="126" cy="211" r="2.1" fill-opacity="0.09"/><circle cx="150" cy="204" r="2.1" fill-opacity="0.09"/><circle cx="150" cy="211" r="2.1" fill-opacity="0.09"/><circle cx="150" cy="218" r="2.1" fill-opacity="0.09"/><circle cx="150" cy="225" r="2.1" fill-opacity="0.09"/><circle cx="174" cy="204" r="2.1" fill-opacity="0.09"/><circle cx="174" cy="211" r="2.1" fill-opacity="0.09"/><circle cx="174" cy="218" r="2.1" fill-opacity="0.09"/><circle cx="198" cy="204" r="2.1" fill-opacity="0.09"/><circle cx="198" cy="211" r="2.1" fill-opacity="0.09"/><circle cx="222" cy="204" r="2.1" fill-opacity="0.09"/><circle cx="222" cy="211" r="2.1" fill-opacity="0.09"/><circle cx="222" cy="218" r="2.1" fill-opacity="0.09"/></g></svg>